<?xml version="1.0" encoding="utf-8"?>
<!DOCTYPE svg PUBLIC "-//W3C//DTD SVG 1.0//EN" "http://www.w3.org/TR/2001/REC-SVG-20010904/DTD/svg10.dtd">
<svg version="1.0" xmlns="http://www.w3.org/2000/svg" width="210px" height="210px" viewBox="0 0 210 210" preserveAspectRatio="xMidYMid meet">
 <g fill="#070707" opacity="0.6">
  <path d="M96.2 208.9 c-16.7 -1.6 -34.8 -8.2 -49.3 -17.9 -8.2 -5.6 -21.3 -18.7 -26.9 -26.9 -24.3 -36.1 -24.3 -82.1 0 -118.2 5.6 -8.2 18.7 -21.3 26.9 -26.9 36.1 -24.3 82.1 -24.3 118.2 0 8.2 5.6 21.3 18.7 26.9 26.9 5.9 8.8 12.4 23 15.2 33.1 2 7.4 2.3 10.8 2.3 26 0 15.2 -0.3 18.6 -2.3 26 -2.8 10.1 -9.3 24.3 -15.1 32.9 -21 30.9 -58.6 48.5 -95.9 45z m80.4 -86.8 c-0.9 -1.6 -1.6 -3.7 -1.6 -4.6 0 -0.8 -0.4 -1.5 -1 -1.5 -1.8 0 -1.1 4.6 1 6.5 1.1 1 2 2.5 2.1 3.4 0 0.9 0.3 1.1 0.5 0.4 0.3 -0.6 -0.2 -2.5 -1 -4.2z"/>
 </g>
 <g fill="#a8a8a7">
  <path d="M95.8 203 c-4 -2.2 -7.3 -6.2 -8.3 -10.3 -0.4 -1.5 -1.1 -3 -1.6 -3.3 -0.5 -0.3 -1.6 -2 -2.4 -3.7 -4 -8.6 -12.6 -16.6 -21.1 -19.8 -5.1 -2 -7.8 -2.3 -20.9 -2.4 -9.8 0 -15.7 -0.4 -17.1 -1.2 -3.7 -2.1 -8.3 -8.1 -9 -11.8 -1.3 -7.2 0 -11.7 5.7 -19.6 8.5 -11.6 10.4 -16.6 10.3 -26.8 -0.1 -10.8 -2.7 -17.7 -11.8 -30.5 -2.9 -4.1 -3.2 -11.4 -0.8 -16.3 2.1 -4 7.3 -9.2 9.5 -9.4 0.7 -0.1 7.7 -0.2 15.7 -0.4 8 -0.1 15.7 -0.7 17.2 -1.3 2.5 -1 2.6 -0.9 3.2 2.4 0.4 2 1.3 3.4 2.1 3.4 1.4 0 1.6 -0.5 1.4 -2.7 0 -0.5 -0.7 -0.7 -1.5 -0.5 -0.9 0.2 -1.4 -0.5 -1.4 -2 0.1 -3 5.8 -6 10 -5.2 2.9 0.6 3 0.8 3 6.5 0 5.8 1.6 8.1 2.7 3.9 0.3 -1.1 0.9 -2 1.4 -2 0.5 0 0.9 -0.9 0.9 -1.9 0 -2.3 2.6 -3.5 3.4 -1.5 0.4 1.1 3.1 1.4 13.1 1.4 7.7 0 12.5 0.4 12.5 1 0 0.6 -5.1 1 -13.4 1 -12.5 0 -13.4 0.1 -13.9 2 -0.3 1.1 0 2.3 0.6 2.7 0.7 0.5 9.8 0.9 20.4 1.1 17.8 0.3 19.2 0.2 19.6 -1.5 0.4 -1.5 0.5 -1.5 0.6 0.3 0.2 3.2 -2.9 3.6 -23.8 3.3 l-18.4 -0.4 -0.9 2.4 c-0.4 1.3 -0.7 2.5 -0.5 2.7 0.2 0.2 5.8 0.9 12.4 1.6 8.7 0.8 14.7 0.9 21.4 0.2 5.2 -0.6 9.6 -0.9 9.8 -0.7 2.5 2 -17.1 3.4 -30.6 2.3 -6.1 -0.6 -11.8 -1.2 -12.6 -1.6 -1 -0.3 -1.8 0.5 -2.5 2.5 -0.7 2.1 -1.8 3.1 -3.1 3.1 -1.8 0 -1.9 -0.3 -0.9 -3.1 0.8 -2.5 0.8 -3.3 -0.3 -4 -1.5 -0.9 -3.9 1.4 -3.9 3.8 0 0.7 -0.9 1.3 -2 1.3 -2.3 0 -2.4 -0.1 -0.8 -3.5 0.9 -2 0.9 -2.8 0 -3.7 -1.6 -1.6 -3 -0.1 -7.2 7.7 -1.8 3.3 -6.2 10.7 -9.7 16.4 -5.7 9.2 -6.3 10.6 -5 11.9 1.3 1.3 1.9 0.9 5.1 -3.4 1.9 -2.7 5.9 -8.8 8.7 -13.6 2.9 -4.9 5.6 -8.8 6 -8.8 3.1 0 -1.3 9.1 -11.9 24.3 -2.1 2.9 -3.1 5.4 -2.8 6.4 0.6 1.3 1.4 0.9 4.6 -2.2 4 -3.9 4 -3.9 4 -1.3 0 1.4 -0.9 3.7 -2 5.1 l-2 2.5 5.6 7.9 c5.8 8.1 12 19.3 10.7 19.3 -0.5 0 -2 -2.4 -3.6 -5.3 -4.2 -8 -12.5 -19.2 -14.4 -19.2 -0.9 0 -2 0.7 -2.6 1.5 -0.7 1.2 0.4 3.7 4.7 10.2 3 4.7 7.7 12.8 10.3 17.9 4 7.8 5.2 9.4 6.8 9.1 3.1 -0.6 3.8 -1.8 2.6 -4.1 -0.8 -1.3 -0.8 -2.1 -0.2 -2.1 0.6 0 1.3 1.1 1.7 2.5 0.6 2.4 0.8 2.5 5.8 1.8 6.8 -1.1 30.5 -1 38.3 0 l6.1 0.9 3.9 -8.4 c4.4 -9.3 9.2 -17.2 9.9 -16.5 0.3 0.3 -0.7 2.5 -2.2 4.9 -4.1 6.5 -9.6 18.9 -9 20.5 0.3 0.7 1.6 1.3 2.8 1.3 1.9 0 3 -1.5 6.3 -8.2 2.2 -4.6 6.8 -12.5 10.3 -17.7 5.9 -8.9 6.2 -9.5 4.6 -11.2 -1.6 -1.8 -1.6 -1.9 -0.1 -1.9 1 0 1.7 -0.5 1.7 -1.1 0 -0.8 0.4 -0.8 1.5 0.1 2.4 2 3.4 0.4 2.4 -4 -0.8 -3.3 -0.6 -4.5 0.8 -6.5 2.2 -2.9 4.9 -3.2 5.8 -0.6 0.7 2.2 3.5 1.8 3.5 -0.5 0 -0.8 0.5 -1.4 1 -1.4 0.6 0 1 0.9 1 2 0 1.1 0.9 2.5 2 3.2 1.5 1 2 2.4 2 5.5 0 4.2 0 4.3 -3.5 4.3 -1.9 0 -3.5 0.5 -3.5 1 0 1.6 -3.2 1.2 -5.2 -0.7 -2.3 -2 -3.6 -0.9 -2 1.7 1.2 2 1.7 7 0.6 7 -0.3 0 -1.4 -1 -2.5 -2.2 l-1.9 -2.3 -2.4 2.7 c-3.2 3.6 -12.7 18.9 -16 25.9 -3.5 7.6 -1.7 12 2.9 6.9 2.3 -2.5 3.5 -2.6 2.8 -0.1 -0.3 1.3 0.2 2.1 1.7 2.6 1.2 0.4 2.3 0.5 2.4 0.3 2.3 -3.2 9.6 -15.4 9.6 -16 0 -0.4 0.7 -0.8 1.5 -0.8 2.2 0 1.9 0.8 -3.5 9.3 -2.8 4.3 -5 8.2 -5 8.6 0 0.5 0.8 1.2 1.7 1.5 1.6 0.7 4.8 -2.3 9.4 -8.6 0.8 -1.1 2.1 -1.9 2.7 -1.7 0.8 0.3 -0.1 2.3 -2.7 5.8 -3.9 5.3 -4.4 7.1 -1.6 7.1 2.2 0 10.1 -9.6 12.6 -15.4 1.6 -3.7 3 -5.6 4.2 -5.6 1.6 0 1.6 0.2 0.2 3.8 -2.3 5.4 -6.2 11.8 -9.7 15.7 l-3 3.5 2.5 0 c1.3 0 3 -0.6 3.6 -1.4 0.6 -0.8 2.5 -1.6 4.2 -1.8 l2.9 -0.5 -2.7 2.9 -2.8 3 3 -0.8 c1.7 -0.4 4.2 -1.6 5.8 -2.6 l2.7 -1.9 0 2.5 c0 3.5 -4.8 5.9 -11.4 5.6 -2.8 -0.1 -6.3 -0.1 -7.8 -0.1 -1.4 0 -3.2 -0.6 -3.8 -1.4 -0.7 -0.8 -2.1 -1.5 -3.2 -1.5 -1 0 -2.3 -1 -2.8 -2.2 -0.8 -2 -0.9 -1.9 -0.9 1.3 -0.1 3.6 -0.2 3.7 -4.6 4.2 -2.5 0.2 -7.4 1.9 -10.9 3.6 -3.5 1.7 -6.9 3.1 -7.5 3.1 -0.6 0 -1.1 0.7 -1.1 1.6 0 0.9 -1.6 3.5 -3.5 5.8 -1.9 2.3 -5.3 7.9 -7.5 12.3 -3 6.1 -5 8.8 -7.7 10.4 -5 3.1 -12.7 3.5 -17.5 0.9z m12.4 0 c4 -1.1 9.8 -6.2 9.8 -8.6 0 -1.2 -0.4 -1.2 -3 0.1 -6.5 3.4 -14.8 3 -24.4 -1 -1.7 -0.7 -1.7 -0.6 -0.3 2.2 2 3.7 3.8 5.2 8.4 6.9 4.7 1.6 4.9 1.6 9.5 0.4z m4.1 -9.4 c2.1 -0.8 4.7 -2.2 5.8 -3.2 2.4 -2.2 2.6 -4.9 0.2 -3.9 -5.1 2 -16 2.6 -22.8 1.2 -3.8 -0.8 -7.2 -1.3 -7.3 -1.2 -1.4 1.3 1.6 4.6 5.6 6.4 5.4 2.4 12.9 2.6 18.5 0.7z m4.7 -9.1 c2.3 -0.8 3.6 -1.9 3.8 -3.3 0.3 -2 0 -2.1 -4.7 -1.5 -3.2 0.4 -5.1 0.2 -5.1 -0.4 0 -1.2 3.3 -2.3 7.2 -2.3 2.4 0 4.8 -2.3 4.8 -4.4 0 -0.3 -2.2 -0.6 -5 -0.6 -3.7 0 -5 -0.4 -5 -1.4 0 -1.1 1.5 -1.6 5.2 -1.8 3.9 -0.2 5.4 -0.7 5.6 -1.9 0.2 -1 -0.6 -1.9 -2 -2.3 -3.7 -0.9 -37.8 -0.7 -37.8 0.3 0 3.5 1.3 4.1 9.1 4.1 6.5 0 7.9 0.3 7.9 1.6 0 1.3 -1.3 1.5 -7.7 1.3 -7.2 -0.2 -7.8 0 -7.5 1.7 0.2 1 0.5 2 0.6 2.1 0.6 0.6 11.2 2.3 14.2 2.3 1.9 0 3.4 0.5 3.4 1.1 0 0.8 -2.5 1 -8.5 0.7 -7.9 -0.5 -8.5 -0.4 -8.5 1.3 0 4.9 19.3 7.1 30 3.4z m8 -5.7 c0 -0.5 -0.4 -0.8 -1 -0.8 -0.5 0 -1 1 -1 2.3 0 1.8 0.2 1.9 1 0.7 0.5 -0.8 1 -1.8 1 -2.2z m2 -5.9 c0 -1.2 -0.5 -1.6 -1.5 -1.3 -0.8 0.4 -1.5 1.5 -1.5 2.5 0 1.2 0.5 1.6 1.5 1.3 0.8 -0.4 1.5 -1.5 1.5 -2.5z m-43 0.1 c0 -1.3 -0.7 -2 -2 -2 -1.8 0 -1.9 0.3 -1 2 0.6 1.1 1.5 2 2 2 0.6 0 1 -0.9 1 -2z m44.8 -5.2 c1.7 -1.7 1.5 -2.8 -0.7 -2.8 -2.2 0 -3.5 1.5 -2.6 3 0.8 1.3 1.8 1.3 3.3 -0.2z m-51.8 -1.3 c0 -0.9 -0.9 -1.5 -2.1 -1.5 -1.8 0 -1.9 0.2 -0.9 1.5 0.7 0.8 1.6 1.5 2.1 1.5 0.5 0 0.9 -0.7 0.9 -1.5z m5.8 -0.2 c-0.2 -1 -1.3 -1.9 -2.6 -2.1 -2.4 -0.4 -2.5 -0.2 -1.6 2.2 0.9 2.3 4.6 2.1 4.2 -0.1z m52 -0.1 c0.3 -0.9 -0.2 -1.3 -1.4 -1 -0.9 0.1 -1.9 0.9 -2.2 1.6 -0.3 0.9 0.2 1.3 1.4 1 0.9 -0.1 1.9 -0.9 2.2 -1.6z m-67.2 -6.1 c-0.4 -0.6 -1.4 -0.7 -2.3 -0.4 -1.5 0.6 -1.4 0.7 0.3 1.3 2.2 0.9 2.9 0.6 2 -0.9z m6.9 0 c0 -0.8 -0.4 -1.6 -1 -1.8 -1.6 -0.5 -3.8 1.4 -3 2.6 0.9 1.6 4 0.9 4 -0.8z m50.7 -2.3 c-0.4 -0.4 -4.7 -1.1 -9.5 -1.4 -7.5 -0.6 -8.7 -0.9 -8.7 -2.5 0 -1.5 0.6 -1.8 3.8 -1.4 15.5 1.7 16.2 1.7 16.2 -0.3 0 -2.7 -2.7 -3.2 -20 -3.8 -17.4 -0.7 -25.3 0.3 -25.8 3 -0.4 1.8 0.2 1.9 11.7 1.2 11.8 -0.7 12.1 -0.7 12.1 1.3 0 1.9 -0.6 2.1 -7.9 2.1 -10.6 0 -14.1 0.8 -14.1 3.1 0 1.7 1.3 1.9 20.3 2.1 16.6 0.3 20.4 0 21.5 -1.1 0.6 -0.8 0.9 -1.8 0.4 -2.3z m6.6 2 c0.3 -1.3 -0.3 -1.8 -2.2 -1.8 -2 0 -2.6 0.5 -2.6 2.1 0 1.5 0.5 2 2.2 1.7 1.3 -0.2 2.4 -1.1 2.6 -2z m6 1 c-0.3 -0.7 -1.3 -1.3 -2.3 -1.3 -1 0 -2 0.6 -2.2 1.3 -0.3 0.7 0.5 1.2 2.2 1.2 1.7 0 2.5 -0.5 2.3 -1.2z m-55.8 -0.5 c-0.1 -2 -1.8 -3.2 -3.8 -2.6 -2.2 0.5 -2.7 1.4 -1.5 2.6 0.9 0.9 5.3 0.9 5.3 0z m-53.9 -5 c-2.7 -2.9 -4.8 -6.8 -6 -10.6 -1.9 -6.2 -2.4 -6.4 -3.5 -1.1 -1.4 6.2 5.6 16.4 11.1 16.4 2.4 0 2.4 -0.1 -1.6 -4.7z m11.9 3 c0 -0.3 -1.8 -3 -4.1 -5.9 -3.8 -5 -8.8 -15.2 -8.9 -18.2 0 -2.7 -2.5 -0.5 -2.8 2.5 -0.5 5.1 3.4 13.7 8.3 18.2 4 3.7 7.5 5.3 7.5 3.4z m107 -1.2 c0 -0.5 -0.7 -1.2 -1.6 -1.5 -2.2 -0.9 -2.4 -0.8 -2.4 0.9 0 0.8 0.9 1.5 2 1.5 1.1 0 2 -0.4 2 -0.9z m-99.6 -0.9 c0.3 -0.4 -1.5 -3.6 -3.9 -7 -2.3 -3.5 -5.8 -9.6 -7.6 -13.8 -3.5 -8 -5.4 -9 -5.3 -2.8 0.1 9.4 13.8 28.5 16.8 23.6z m18.1 -0.1 c0.3 -0.5 0.1 -1.2 -0.4 -1.5 -1.2 -0.8 -4.1 0.3 -4.1 1.5 0 1.2 3.7 1.2 4.5 0z m75.5 -1.1 c0 -1.6 -4.2 -2.3 -5.1 -0.9 -0.6 1 -0.2 1.6 1.4 2 2.4 0.6 3.7 0.3 3.7 -1.1z m-68.1 -0.6 c0.6 -0.5 -1 -2.4 -2.2 -2.4 -2.1 0 -4 1.7 -3.2 2.9 0.6 1 4.1 0.7 5.4 -0.5z m-17.9 -1.8 c0 -0.6 -1.5 -3.4 -3.3 -6.1 -1.9 -2.8 -5.6 -9.2 -8.3 -14.2 -2.7 -5.1 -5.3 -9.1 -5.8 -9 -3.1 1 -2.8 3.7 1.2 11.8 5.8 12 11.6 19.9 14.2 19.2 1.1 -0.3 2 -1 2 -1.7z m78.8 0.7 c-0.4 -2.2 -3.8 -3 -4.9 -1.2 -1.1 1.9 -0.2 2.9 2.7 2.9 1.9 0 2.5 -0.5 2.2 -1.7z m-53.8 -0.7 c0 -2 -1.2 -2.6 -3.8 -1.9 -3.3 0.8 -2.7 3.3 0.8 3.3 1.9 0 3 -0.5 3 -1.4z m-18.1 -1.9 c0.6 -0.8 0.8 -1.7 0.4 -2 -0.3 -0.4 -0.2 -0.7 0.3 -0.7 0.6 0 1.4 0.4 2 1 1.1 1.1 5.4 0.2 5.4 -1.1 0 -3.2 -18.1 -34.9 -19.9 -34.9 -0.5 0 -1.5 0.8 -2.4 1.8 -1.5 1.6 -1.1 2.5 4.4 11.7 3.2 5.5 5.9 10.3 5.9 10.8 0 2.5 -2.5 -0.6 -7.5 -9.3 -3.1 -5.5 -6.1 -10 -6.5 -10 -0.4 0 -1.4 0.7 -2.1 1.6 -1.1 1.4 -0.6 2.9 3.4 10.8 6.4 12.4 12.4 21.6 14.1 21.6 0.7 0 1.9 -0.6 2.5 -1.3z m-20.9 -35.2 c0.7 -0.9 1 -1.8 0.7 -2.2 -0.8 -0.7 -3.7 1.5 -3.7 2.8 0 1.4 1.6 1.1 3 -0.6z m5.7 -5 c0.3 -0.9 0.3 -1.9 -0.1 -2.2 -0.7 -0.7 -3.6 1.6 -3.6 2.8 0 1.5 3 1 3.7 -0.6z m122.1 -5.3 c-0.7 -0.8 -1.4 -1 -2.1 -0.3 -0.7 0.7 -0.6 1.5 0.3 2.6 1 1.2 1.5 1.3 2.1 0.3 0.4 -0.7 0.3 -1.8 -0.3 -2.6z m-117.5 1 c1.3 -1.4 1.4 -2.1 0.5 -3 -1.5 -1.5 -4.9 1.3 -4.1 3.4 0.7 1.9 1.7 1.8 3.6 -0.4z m-8.6 -0.8 c0.9 -2.5 -1.3 -4 -2.6 -1.6 -1 1.9 -0.6 3.2 1.1 3.2 0.5 0 1.1 -0.7 1.5 -1.6z m123 -3 c0.7 -2 -1.1 -3.8 -3.2 -3.1 -1.3 0.6 -1.3 1 -0.3 2.7 1.5 2.4 2.7 2.6 3.5 0.4z m-118.8 -4.1 c-0.6 -0.7 -1.5 -1.3 -1.9 -1.3 -1.2 0 -2 2.8 -1.3 4.5 0.5 1.4 0.8 1.4 2.4 -0.1 1.4 -1.3 1.6 -2 0.8 -3.1z m126.1 3.3 c0 -0.8 -0.4 -1.7 -0.9 -2.1 -1.2 -0.7 -2.4 1.2 -1.6 2.5 0.9 1.5 2.5 1.2 2.5 -0.4z m-134 -2.2 c0 -1.6 -1.6 -1.9 -2.5 -0.4 -0.8 1.3 0.4 3.2 1.6 2.5 0.5 -0.4 0.9 -1.3 0.9 -2.1z m2.7 -4 c0.8 -2.1 -1.9 -3.8 -3 -1.8 -0.9 1.6 -0.1 3.4 1.4 3.4 0.5 0 1.2 -0.7 1.6 -1.6z m13.1 -20.7 c4.5 -7.8 8.2 -14.6 8.2 -15.3 0 -0.6 -0.7 -1.5 -1.5 -1.8 -1.7 -0.6 -8.4 9 -16.3 23.5 -4.4 8 -5 10.4 -2.9 11.2 1.6 0.6 2.6 -0.8 12.5 -17.6z m-17.8 15.9 c0 -1.6 -1.8 -3.1 -2.7 -2.2 -0.8 0.8 0.5 3.6 1.7 3.6 0.5 0 1 -0.6 1 -1.4z m4.5 -8.3 c2.8 -5.4 10 -17.6 13.8 -23.4 1.7 -2.6 1.7 -2.7 -0.3 -3.2 -2.5 -0.6 -4.5 1.3 -10.3 9.8 -5.8 8.4 -10.2 19.2 -8.6 21.1 0.6 0.8 1.4 1.4 1.8 1.4 0.3 0 2 -2.6 3.6 -5.7z m-5.3 -6.5 c1.8 -4 5.7 -10.6 8.6 -14.6 2.8 -4 5.2 -7.5 5.2 -7.8 0 -0.2 -1.1 -0.4 -2.4 -0.4 -6.6 0 -19.8 21.8 -17.2 28.5 1.1 2.9 2.5 1.5 5.8 -5.7z m-7.8 0 c1.1 -5.6 5.1 -13.1 10.1 -18.6 5.6 -6.2 5.2 -8.6 -0.9 -5.7 -5 2.4 -10.4 8.9 -12.1 14.9 -1.8 5.9 -1.9 8.1 -0.5 10.7 1.5 2.8 2.7 2.3 3.4 -1.3z m-5.3 -7.4 c1.1 -5.9 6.1 -13.8 10.8 -17 l3.6 -2.4 -4.1 0 c-10.4 0 -17.7 11.7 -13.5 21.8 1.7 4 2.1 3.6 3.2 -2.4z m55.9 -9.4 c0.9 -1.6 0.8 -2.2 -0.5 -2.6 -0.8 -0.3 -1.5 -1.5 -1.5 -2.5 0 -4.1 -1.5 -1.6 -1.6 2.6 -0.1 4.9 1.7 6.1 3.6 2.5z m-6 -3.2 c0 -1.5 -3.8 -0.8 -4.4 0.9 -0.9 2.4 1.6 3.7 3.2 1.6 0.6 -0.9 1.2 -2 1.2 -2.5z m-7.7 -0.3 c0.4 -0.8 0.2 -1.7 -0.4 -2.1 -1.2 -0.7 -4.1 1.5 -3.3 2.7 0.8 1.4 3.1 1.1 3.7 -0.6z m-6.3 -2.6 c0 -0.5 -0.9 -0.9 -2 -0.9 -2.2 0 -2.7 1.6 -0.7 2.3 1.5 0.5 2.7 -0.1 2.7 -1.4z m-6.8 -2.1 c-0.6 -0.6 -1.6 -0.7 -2.2 -0.3 -0.9 0.6 -0.9 0.9 0.1 1.6 1.7 1 3.4 0 2.1 -1.3z m22.6 -0.2 c0.3 -1.3 -0.1 -1.7 -1.4 -1.4 -1.1 0.2 -2 1.1 -2.2 2.2 -0.3 1.3 0.1 1.7 1.4 1.4 1.1 -0.2 2 -1.1 2.2 -2.2z m1.6 -5.2 c1 -2.5 -0.1 -2.9 -1.4 -0.5 -0.6 1.2 -0.7 2.1 -0.1 2.1 0.5 0 1.2 -0.7 1.5 -1.6z"/>
  <path d="M167.8 122.1 c-1 -1 -1.8 -3.1 -1.8 -4.7 0.1 -2.4 0.2 -2.6 1.1 -1.1 1.2 2.1 3.3 2.3 2.5 0.2 -0.4 -1.2 0.3 -1.5 2.9 -1.5 3.5 0 3.5 0 3.5 4.5 0 4.4 -0.1 4.5 -3.2 4.4 -1.8 0 -4.1 -0.8 -5 -1.8z"/>
  <path d="M179.9 86.3 c0 -0.5 -0.2 -2.9 -0.4 -5.4 -0.1 -2.6 -1.4 -7.2 -2.9 -10.4 -3 -6.5 -2.9 -6.5 -1.6 -6.5 1.3 0 4.5 6.4 5.9 11.8 1.3 4.5 3 5.5 3.8 2.2 0.3 -1.1 1.4 -2 2.5 -2 1.9 0 1.9 0.1 -0.3 3.8 -3.7 6.1 -6.7 8.9 -7 6.5z"/>
  <path d="M136.7 65.5 c-1.9 -4 -2.2 -8.5 -0.7 -8.5 0.6 0 1.3 0.7 1.6 1.5 0.4 0.8 1.5 1.5 2.6 1.5 1.4 0 1.8 -0.5 1.4 -1.6 -0.5 -1.3 -0.1 -1.5 2.1 -1.1 3.5 0.6 5.3 -0.1 4.6 -1.9 -0.3 -0.8 0.1 -1.4 1.1 -1.4 1.1 0 1.6 0.9 1.6 2.7 0 1.4 -0.3 2.3 -0.6 2 -0.4 -0.3 -1.5 -0.2 -2.5 0.4 -1.8 0.9 -1.8 1.2 -0.4 3.9 0.8 1.6 1.5 3.6 1.5 4.5 0 2.8 -1.9 1.6 -4 -2.5 -2.2 -4.2 -2.6 -4.5 -4.9 -3.1 -1.1 0.7 -1.2 1.3 -0.4 2.3 2.1 2.7 2.3 4.8 0.5 4.8 -1.1 0 -2.5 -1.4 -3.5 -3.5z"/>
  <path d="M189.4 58.5 c-2.6 -5.6 -1.2 -6 1.6 -0.5 2.2 4.3 2.4 5 1.3 5 -0.5 -0.1 -1.7 -2.1 -2.9 -4.5z"/>
  <path d="M157.7 56.3 c-0.9 -0.9 -0.9 -3.3 0.1 -3.2 1.9 0.3 3.3 -0.2 2.7 -1.1 -0.3 -0.5 -1.2 -0.7 -2 -0.3 -0.8 0.3 -1.5 0 -1.5 -0.5 0 -1.6 3.2 -2.3 9.9 -2.1 5 0.2 6.1 0.5 6.1 1.9 0 1.3 -0.7 1.6 -3 1.2 -3.1 -0.4 -3.8 0.6 -1.8 2.6 1.6 1.6 -0.5 1.6 -3.1 0 -2.1 -1.3 -5.6 -0.4 -4.6 1.2 0.7 1.1 -1.8 1.4 -2.8 0.3z"/>
  <path d="M92 41.1 c0 -1.2 11.2 -2.4 14.9 -1.6 5.9 1.3 3 2.5 -5.9 2.5 -4.9 0 -9 -0.4 -9 -0.9z"/>
 </g>
 <g fill="#b7b5b4">
  <path d="M119.1 191.9 c-0.1 -0.9 0.9 -2.4 2.2 -3.5 2.2 -1.9 2.2 -1.9 0.6 0.1 -0.9 1.1 -1.9 2.7 -2.2 3.5 -0.5 1.3 -0.6 1.3 -0.6 -0.1z"/>
  <path d="M100.3 187.3 c0.9 -0.2 2.5 -0.2 3.5 0 0.9 0.3 0.1 0.5 -1.8 0.5 -1.9 0 -2.7 -0.2 -1.7 -0.5z"/>
  <path d="M124.9 182.8 c0 -0.2 -0.2 -1.8 -0.4 -3.6 -0.2 -3 0.1 -3.5 3.1 -4.8 1.9 -0.8 3.4 -1.9 3.4 -2.5 0 -0.8 -0.5 -0.8 -1.5 0.1 -1.1 1 -1.8 0.9 -3 -0.3 -0.8 -0.9 -1.5 -2.1 -1.5 -2.7 0 -0.6 -0.4 -0.8 -1 -0.5 -0.6 0.4 -0.7 -0.1 -0.3 -1.1 0.5 -1.5 0.7 -1.5 1.5 0 1.2 2.1 3.4 2 4.7 -0.1 1 -1.7 1 -1.7 1.1 0 0 1.5 0.3 1.6 2.1 0.7 2.2 -1.2 5.3 -0.6 4.7 0.9 -0.3 0.9 -12.8 14.3 -12.9 13.9z"/>
  <path d="M101 179 c0 -0.6 2.8 -1 6.5 -1 3.7 0 6.5 0.4 6.5 1 0 0.6 -2.8 1 -6.5 1 -3.7 0 -6.5 -0.4 -6.5 -1z"/>
  <path d="M117.7 178.3 c0.7 -1.7 5.3 -1.7 5.3 0.1 0 0.8 -1.1 1.3 -2.9 1.2 -1.8 -0.1 -2.7 -0.5 -2.4 -1.3z"/>
  <path d="M72.2 171.1 c-1.7 -1.1 -2.5 -5.1 -1 -5.1 1.6 0 4.7 1.9 3.3 2 -0.5 0 0.1 0.7 1.4 1.4 l2.4 1.3 -2.6 0.5 c-1.4 0.3 -3 0.2 -3.5 -0.1z"/>
  <path d="M94 171.1 c0 -1.6 2.7 -2 14.1 -1.8 8 0.1 11.4 0.6 11.7 1.5 0.3 0.9 -2.7 1.2 -12.7 1.2 -7.2 0 -13.1 -0.4 -13.1 -0.9z"/>
  <path d="M81 169.7 c0 -0.9 0.5 -1.7 1 -1.7 0.6 0 1 -0.8 1.1 -1.7 0 -1.1 0.3 -1.3 0.6 -0.6 0.2 0.7 -0.3 2.3 -1.1 3.5 -1.3 1.8 -1.6 1.9 -1.6 0.5z"/>
  <path d="M140.5 165.8 c-1.7 -1.6 -1.7 -2 -0.5 -2.8 0.8 -0.5 2.1 -1 2.8 -1 0.7 0 2.3 -0.5 3.5 -1.2 1.2 -0.7 3.2 -1.1 4.5 -0.9 2.6 0.3 2.9 -1.1 0.5 -3.4 -1.6 -1.6 -1.7 -1.6 -3 0.1 -0.7 1 -1.3 1.3 -1.3 0.7 0 -1 -8.5 -4.3 -11.2 -4.3 -0.8 0 -2.4 -0.9 -3.5 -2 -1.7 -1.5 -2.3 -1.7 -3.2 -0.6 -0.6 0.7 -0.8 1.6 -0.4 1.9 0.3 0.4 0.1 0.7 -0.5 0.7 -0.7 0 -1.2 -1.1 -1.2 -2.5 0 -1.4 -0.4 -2.5 -1 -2.5 -0.5 0 -1 0.5 -1 1 0 1.2 -1 1.3 -2.9 0.1 -0.8 -0.5 -1.1 -1.6 -0.8 -2.4 0.5 -1.3 1.2 -1.4 3.9 -0.6 2.2 0.6 3.4 0.6 3.6 -0.1 0.2 -0.6 1.5 -0.1 2.8 0.9 3.2 2.5 4.8 1.9 6.9 -2.6 2.2 -4.6 3 -3.7 1 1.2 -1.8 4.2 -1.8 4.2 1.5 4.7 2.1 0.3 3 -0.7 7 -7.9 2.5 -4.5 5.1 -8.8 5.7 -9.4 2.9 -2.9 1.8 0.2 -3.2 9.1 -5.3 9.2 -5.4 9.5 -3.3 10.3 2.7 1 4.8 0.2 4.8 -1.7 0 -0.7 0.7 -1.7 1.6 -2 0.8 -0.3 1.2 -1 0.9 -1.6 -0.3 -0.6 0.1 -1.3 0.9 -1.6 0.9 -0.3 1.6 -1.2 1.6 -1.8 0 -0.7 0.5 -1.7 1.2 -2.4 0.6 -0.6 1.3 -1.7 1.4 -2.4 0.1 -0.7 2.1 -4.6 4.4 -8.6 4.1 -7 4.2 -7.4 2.5 -9.2 -1.8 -2 -1.9 -1.9 -5.2 3 -1.8 2.7 -3.8 5 -4.4 5 -1.1 0 0.2 -2.8 3.3 -7.3 1.7 -2.3 1.8 -3.2 0.9 -5.5 -0.6 -1.5 -2.5 -3.5 -4.1 -4.4 -2.3 -1.3 -3 -2.4 -3 -4.8 0 -2 0.5 -3 1.6 -3 0.8 0 1.3 0.4 1 0.8 -0.7 1.2 8.2 9.8 9.1 8.8 1.1 -1.1 -1.3 -4.1 -3.2 -3.9 -1 0 -1.4 -0.4 -1.1 -1.3 0.3 -0.8 -0.3 -2.3 -1.4 -3.4 -2 -2 -2 -2 0.3 -2 2.3 0 6 2.7 7 5.2 0.4 1 0.7 1 1.5 -0.1 1.1 -1.5 0.1 -4 -3.2 -7.8 -1.5 -1.7 -2.2 -2 -3.3 -1.2 -0.7 0.6 -1 1.5 -0.7 2 0.3 0.5 -0.2 0.9 -1 0.9 -0.9 0 -1.6 -0.7 -1.6 -1.5 0 -0.8 0.5 -1.5 1 -1.5 0.6 0 1.8 -1.3 2.9 -3 1 -1.6 2.1 -2.7 2.4 -2.4 0.9 0.9 3.8 -1.6 3.1 -2.7 -0.3 -0.5 0.3 -0.9 1.3 -0.9 2.4 0 4.3 -1.9 4.3 -4.3 0 -1 -1.3 -4.5 -3 -7.9 -3.5 -6.9 -3.4 -6.8 -1.6 -6.8 1.2 0 6.6 10.4 6.6 12.9 0 1.5 1.5 1.4 2.9 -0.3 1.1 -1.3 1 -4.8 -0.3 -9.1 -1.9 -7 -13.4 -21.9 -16 -20.9 -0.7 0.3 -1.6 -0.2 -1.9 -1 -0.4 -0.9 -1.3 -1.3 -2.2 -1 -1 0.4 -1.5 0 -1.5 -1.4 0 -1.8 0.4 -2 3 -1.2 3.8 1.1 12.4 9.2 15.7 14.8 2.6 4.3 5 11.3 6 16.7 0.3 1.7 0.9 3.1 1.3 3.3 0.5 0.2 0.2 1.5 -0.6 3 -0.8 1.5 -1.4 3.2 -1.4 3.9 0 0.6 -0.4 1.3 -0.9 1.5 -1.7 0.7 -3.7 13.2 -2.9 18.7 0.9 6.1 7 19 11.8 25 5.4 6.7 5.1 16.2 -0.7 23.2 -2.8 3.3 -8.3 6.6 -8.3 4.9 0 -1.5 -2.7 -1.2 -3.3 0.4 -0.6 1.5 -5.7 1 -5.7 -0.6 0 -0.5 -0.4 -0.6 -1 -0.3 -0.5 0.3 -4.5 0.7 -8.7 0.9 -6 0.2 -8.1 -0.1 -8.9 -1.2 -1.5 -2 -6.4 -0.8 -7.1 1.8 -0.7 2.7 -2.5 3 -4.8 0.8z m42.3 -6.5 c3.5 -2.2 6.2 -7.3 6.2 -12 0 -7.5 -1.2 -8 -3.2 -1.4 -1.4 4.4 -3.1 7.5 -6.3 10.8 -2.5 2.6 -4.5 4.8 -4.5 5 0 0.7 5.6 -1 7.8 -2.4z m-7.7 -3 c5.1 -4.6 7.8 -9.9 8.2 -15.9 0.3 -6.3 -1.5 -6.5 -3.7 -0.5 -1.1 3.2 -2.2 4.8 -3 4.5 -1 -0.4 -0.9 -1.8 0.6 -6.2 3.6 -10.9 -0.2 -11.2 -5.4 -0.4 -3.5 7.4 -4.5 8.8 -9.7 15.3 -2.1 2.7 -2.3 5.9 -0.3 5.9 1.3 0 7.8 -6.5 9.8 -9.9 1.6 -2.6 4.4 -4.3 4.4 -2.5 0 2.3 -6.2 10.3 -9.4 12.1 -2 1.2 -1.9 1.2 1.1 1.3 2.4 0 4.4 -1 7.4 -3.7z m-16 -1.3 c0.4 0 0.6 -0.6 0.3 -1.3 -0.3 -0.8 0.2 -2 1.1 -2.7 2 -1.6 8.8 -13.2 11.4 -19.4 1.9 -4.3 1.9 -4.5 0.2 -6.1 -1.7 -1.5 -2.1 -1.1 -7.1 8 -2.9 5.2 -5.7 9.5 -6.2 9.5 -0.5 0 -0.6 0.5 -0.3 1 0.3 0.6 0.1 1 -0.4 1 -0.6 0 -1.1 0.7 -1.1 1.5 0 0.8 -0.4 1.5 -1 1.5 -0.5 0 -1 0.7 -1 1.5 0 0.7 -0.7 1.8 -1.6 2.3 -1.4 0.8 -1.4 1 0.1 2.6 1 0.9 2.4 1.5 3.2 1.2 0.8 -0.3 1.9 -0.6 2.4 -0.6z m13.9 -35.5 c0 -0.8 -0.5 -1.5 -1.1 -1.5 -0.6 0 -2 -1 -3 -2.2 -1.9 -2.2 -2 -2.2 -1.7 -0.3 0.2 1.1 1.3 2.4 2.6 3 1.2 0.5 2.2 1.3 2.2 1.7 0 0.5 0.2 0.8 0.5 0.8 0.3 0 0.5 -0.7 0.5 -1.5z m-0.6 -8 c-0.6 -1.6 -2.4 -2.1 -2.4 -0.7 0 1.1 1.1 2.2 2.1 2.2 0.5 0 0.6 -0.7 0.3 -1.5z m1 -7.4 c-0.5 -0.3 -0.9 -1.4 -0.9 -2.3 0 -2.1 -1.9 -2.5 -2.3 -0.6 -0.3 1.7 3.2 6.1 3.7 4.6 0.2 -0.5 0 -1.3 -0.5 -1.7z m-2.7 -6.7 c0.8 -2 -1.3 -4.2 -2.7 -2.8 -1.2 1.2 -0.3 4.4 1.1 4.4 0.5 0 1.2 -0.7 1.6 -1.6z m4.6 -7.6 c-0.3 -0.6 -1.2 -0.3 -2 0.5 -0.9 0.9 -1.2 2 -0.8 2.8 0.6 0.9 1.1 0.8 2.1 -0.6 0.7 -1 1.1 -2.2 0.7 -2.7z m4.7 -4 c0 -0.6 -0.7 -0.5 -1.5 0.2 -0.8 0.7 -1.5 1.7 -1.5 2.2 0 0.6 0.7 0.5 1.5 -0.2 0.8 -0.7 1.5 -1.7 1.5 -2.2z"/>
  <path d="M61.1 164.8 c-0.1 -1 -0.1 -2.1 -0.1 -2.5 0 -0.5 1.4 -0.8 3 -0.9 1.9 -0.1 3 0.4 3 1.3 0 0.7 -1.1 1.3 -2.4 1.3 -1.3 0 -2.7 0.6 -2.9 1.3 -0.3 0.7 -0.6 0.5 -0.6 -0.5z"/>
  <path d="M74.5 164 c-0.3 -0.6 -0.3 -1.9 0 -3 0.5 -1.5 0 -2.2 -2 -3 -3.6 -1.4 -4.5 -1.3 -4.5 0.5 0 1.2 -0.4 1.3 -2.5 0.3 -2.3 -1 -2.4 -1.2 -0.7 -2.3 0.9 -0.7 3 -1.1 4.5 -1 1.7 0.2 3.1 -0.3 3.7 -1.3 0.8 -1.4 0.9 -1.3 1 0.9 0 1.4 0.3 2.9 0.8 3.3 0.6 0.6 1.1 6.6 0.5 6.6 -0.1 0 -0.5 -0.5 -0.8 -1z"/>
  <path d="M112.3 164.3 c-12.2 -0.4 -15.8 -2.2 -4.5 -2.4 3.7 0 8.6 -0.3 10.8 -0.5 3.5 -0.4 4.2 -0.2 4.7 1.6 0.3 1.1 0.4 1.9 0.4 1.8 -0.1 -0.1 -5.3 -0.4 -11.4 -0.5z"/>
  <path d="M129 164.3 c0 -0.5 0.9 -1.8 2 -2.8 1.1 -1 2 -1.6 2 -1.3 0 0.3 -0.9 1.5 -2 2.8 -1.1 1.3 -2 1.9 -2 1.3z"/>
  <path d="M77.6 162.4 c-0.5 -1.2 -0.2 -1.5 1 -1 0.8 0.3 1.8 0.6 2 0.6 0.2 0 0.4 0.5 0.4 1 0 1.6 -2.7 1.1 -3.4 -0.6z"/>
  <path d="M85 163 c0 -0.6 2.7 -1 6 -1 3.3 0 6 0.4 6 1 0 0.6 -2.7 1 -6 1 -3.3 0 -6 -0.4 -6 -1z"/>
  <path d="M139 158.9 c0 -2.1 -1.6 -2.6 -2.3 -0.6 -0.3 0.7 -0.6 0.5 -0.6 -0.5 -0.1 -1.3 0.6 -1.7 3.2 -1.5 4.9 0.3 6.8 4.1 2.2 4.3 -1.8 0.2 -2.5 -0.3 -2.5 -1.7z"/>
  <path d="M125.2 156.6 c-1 -2.3 -0.9 -2.6 0.8 -2.6 2.5 0 3.2 1.3 1.7 3.4 -1.2 1.6 -1.4 1.6 -2.5 -0.8z"/>
  <path d="M108.6 156.2 c-6.7 -0.2 -10.3 -0.7 -11.2 -1.7 -2.1 -2 -0.8 -2.3 8.1 -1.8 4.4 0.2 10 0.4 12.5 0.4 2.5 0.1 3.7 0.3 2.8 0.5 -0.9 0.3 -1.8 1.1 -2 1.7 -0.2 0.9 -3.2 1.1 -10.2 0.9z"/>
  <path d="M82.5 155.1 c-2.2 -0.4 -3 -1.2 -3.1 -2.8 -0.1 -2.9 1.2 -3 1.9 -0.3 0.3 1.1 0.9 2 1.4 1.9 3 -0.5 11.3 0.3 11.3 1.1 0 1.1 -6.6 1.1 -11.5 0.1z"/>
  <path d="M61.8 153.8 c-0.4 -0.8 -0.3 -2.1 0.2 -2.8 0.5 -0.7 -0.7 -3.9 -3.1 -8.1 -2.2 -3.8 -3.9 -7.3 -3.9 -7.9 0 -2.3 2.2 0.4 6.1 7.6 3.6 6.5 4.4 7.4 6.3 6.8 2.6 -0.8 3.6 -2.2 3 -4.3 -0.3 -0.9 0.1 -0.6 0.7 0.7 0.9 1.6 1.8 2.1 3.2 1.6 5.9 -1.9 17.9 -3 30.4 -2.9 7.9 0.1 14.5 0.4 14.9 0.7 0.3 0.4 0.3 1.1 -0.1 1.7 -0.9 1.6 -10.2 1.4 -10.8 -0.1 -0.3 -0.7 -0.6 -0.8 -0.6 -0.3 -0.1 1 -7.6 1 -12.3 -0.1 -1.9 -0.4 -2.8 -0.2 -2.8 0.6 0 0.9 -1.3 1.1 -5 0.6 -3.3 -0.4 -5 -0.3 -5 0.4 0 0.6 -1 0.8 -2.5 0.4 -1.5 -0.4 -2.5 -0.2 -2.5 0.4 0 0.7 -1.4 0.9 -3.4 0.5 -2.6 -0.4 -3.8 -0.1 -5.2 1.5 -0.9 1.1 -2.3 1.8 -3.1 1.5 -0.8 -0.3 -2 0.2 -2.7 1.2 -1.1 1.5 -1.4 1.5 -1.8 0.3z"/>
  <path d="M74.3 137 c-1.7 -3.9 -2.8 -7 -2.3 -7 0.4 0 1 0.6 1.3 1.3 0.3 0.6 1.7 3.8 3.1 7 1.4 3.1 2.2 5.7 1.8 5.7 -0.4 0 -2.1 -3.2 -3.9 -7z"/>
  <path d="M65.3 136.6 c-0.6 -0.8 -0.9 -1.7 -0.6 -2 0.4 -0.3 0.2 -0.6 -0.4 -0.6 -0.6 0 -1.4 -0.8 -1.7 -1.7 -0.4 -1.1 0.4 -0.7 1.9 1 1.4 1.5 2.5 3.2 2.5 3.8 0 1.2 -0.3 1.1 -1.7 -0.5z"/>
  <path d="M143 135.3 c0 -0.7 5.1 -8.3 5.6 -8.3 0.1 0 -0.7 2 -1.9 4.5 -2 4 -3.7 5.8 -3.7 3.8z"/>
  <path d="M55.6 103 c-1.9 -0.6 -1.9 -0.7 0.1 -2.1 3.2 -2.2 13.2 -17.6 17.5 -26.7 3.9 -8.7 4.6 -11.2 2.7 -11.2 -0.5 0 -0.7 -0.5 -0.4 -1 0.4 -0.6 1 -0.8 1.4 -0.5 0.5 0.2 1.3 -0.7 1.9 -2.1 1 -2.1 0.9 -2.6 -0.5 -3.1 -0.9 -0.4 -1.9 -0.1 -2.1 0.5 -0.2 0.7 -0.9 1.8 -1.6 2.5 -0.7 0.7 -1.1 1.7 -0.9 2.2 0.2 0.6 -1.8 5.3 -4.4 10.5 -3.8 7.4 -5.3 9.6 -7.1 9.8 -2.3 0.4 -2.3 0.3 -0.7 -2.2 1 -1.4 2.5 -2.6 3.4 -2.6 1.2 0 1.3 -0.2 0.3 -0.9 -1 -0.6 -0.5 -2.3 2.3 -7.6 3.3 -6.3 3.4 -6.9 1.7 -8.1 -1.6 -1.2 -1.5 -1.3 0.5 -0.8 1.6 0.4 2.3 0 2.8 -1.6 1 -3.2 -2.3 -5.3 -3.6 -2.1 -0.4 1.1 -0.8 1 -2.2 -0.3 -2.1 -2.1 -2.2 -3.6 -0.2 -3.6 0.8 0 1.7 -1.1 2.1 -2.5 0.3 -1.4 1 -2.5 1.5 -2.5 0.5 0 0.9 -0.7 0.9 -1.5 0 -0.8 -0.7 -1.5 -1.6 -1.5 -0.8 0 -1.3 0.4 -0.9 1 0.3 0.5 -0.3 1.8 -1.5 3 -1.1 1.1 -2 2.3 -2 2.8 -0.1 1.3 -4.9 6.2 -6.1 6.2 -0.7 0 -0.9 -0.9 -0.6 -2.1 0.7 -2.7 -1.7 -5.3 -4.2 -4.6 -1.8 0.4 -5 -0.8 -4.1 -1.6 0.3 -0.2 2.1 -0.7 4.2 -1 3 -0.5 3.7 -0.2 4.1 1.5 0.7 2.5 3.3 1.8 2.9 -0.9 -0.2 -1.4 0.9 -2.4 4.5 -4.1 2.6 -1.2 6.7 -4 9.1 -6.3 2.3 -2.3 4.2 -3.6 4.2 -3 0 0.6 1.1 1.1 2.5 1.1 2.3 0 2.5 -0.4 2.5 -4 0 -3.3 0.3 -4 2 -4 1.6 0 2 -0.7 2 -3.5 0 -2.5 0.4 -3.5 1.6 -3.5 1 0 1.4 0.5 1 1.5 -0.5 1.4 0.2 1.5 5.7 0.8 11.2 -1.4 21.7 -0.3 21.7 2.3 0 1.3 -0.8 1.4 -4.7 0.7 -10.7 -1.7 -24.3 0.4 -24.3 3.7 0 1.6 1 1.7 10.9 1.2 11.8 -0.5 18.1 0.2 18.1 2.1 0 0.9 -3.8 1.2 -14.4 1.2 -7.9 0 -14.7 0.2 -14.9 0.5 -0.3 0.3 -0.7 1.4 -0.9 2.5 -0.2 1.7 0.3 2.1 3.5 2.3 4.9 0.4 4.8 2.2 -0.2 2.2 -3.1 0 -4.1 0.4 -4.6 2.1 -0.4 1.2 -0.2 2.6 0.4 3.2 1.4 1.4 1.4 3 0.1 2.2 -0.6 -0.4 -1.5 0.7 -2.1 2.4 -0.6 1.7 -1.6 3.1 -2.1 3.1 -0.7 0 -0.7 0.4 0 1.3 1 1.3 -0.1 5.7 -1.5 5.7 -0.4 0 -0.8 1.4 -0.9 3.1 -0.2 4.2 -9.3 22.2 -15.6 30.8 -5.8 7.7 -6.4 8.2 -9.2 7.1z m25.4 -51.6 c0 -3.1 -2.3 -2.8 -2.8 0.4 -0.2 1.5 0.2 2.2 1.2 2.2 1.1 0 1.6 -0.9 1.6 -2.6z m-6.2 -1.2 c0.3 -2.1 0.1 -2.2 -1.6 -1.3 -1.1 0.6 -2.2 1.8 -2.6 2.6 -0.4 1.3 -0.1 1.6 1.7 1.3 1.4 -0.2 2.3 -1.1 2.5 -2.6z m1.6 -4.8 c0.9 -2.4 0.7 -2.8 -0.9 -1.4 -1.7 1.4 -2 3 -0.6 3 0.5 0 1.2 -0.7 1.5 -1.6z m6 0 c0.4 -0.9 0.4 -1.9 0.2 -2.1 -0.8 -0.8 -2.6 0.8 -2.6 2.3 0 1.9 1.6 1.8 2.4 -0.2z"/>
  <path d="M43 97.9 c0 -0.6 -0.7 -0.8 -1.6 -0.5 -0.8 0.3 -1.2 0.2 -0.9 -0.4 1 -1.5 3.5 -1.2 3.5 0.5 0 0.8 -0.2 1.5 -0.5 1.5 -0.3 0 -0.5 -0.5 -0.5 -1.1z"/>
  <path d="M32.7 92 c-1 -1.2 -2.2 -1.8 -2.7 -1.5 -1.1 0.7 -1.4 -2.8 -0.4 -3.8 0.9 -0.8 5.4 4.3 5.4 6.1 0 1.6 -0.3 1.5 -2.3 -0.8z"/>
  <path d="M37 92 c0 -1.7 2.2 -2.2 3.6 -0.9 1.1 1.2 0.9 1.4 -1.1 1.5 -1.4 0.1 -2.5 -0.2 -2.5 -0.6z"/>
  <path d="M46.4 91.6 c-0.8 -0.9 -0.5 -2 1.2 -4.1 3 -3.8 4.1 -2.7 1.7 1.8 -1.4 2.7 -2.1 3.2 -2.9 2.3z"/>
  <path d="M55.1 92.1 c-1 -0.6 -1 -1 -0.1 -1.6 1.3 -0.8 2.4 -0.1 1.9 1.4 -0.3 0.6 -1 0.7 -1.8 0.2z"/>
  <path d="M57.1 89.1 c-1 -0.6 -1 -1 -0.1 -1.6 1.3 -0.8 2.4 -0.1 1.9 1.4 -0.3 0.6 -1 0.7 -1.8 0.2z"/>
  <path d="M59.3 86.3 c-1.6 -0.6 -0.5 -3.3 1.3 -3.3 0.8 0 1.4 0.6 1.4 1.4 0 1.8 -1.1 2.5 -2.7 1.9z"/>
  <path d="M51.7 83.6 c-1.1 -2.7 -0.8 -3.6 0.8 -3.6 1.6 0 1.7 0.5 0.6 3.4 -0.7 1.8 -0.8 1.8 -1.4 0.2z"/>
  <path d="M34.1 82.5 c0 -0.5 0.6 -2.1 1.4 -3.5 0.8 -1.4 1.4 -2 1.4 -1.5 0 0.6 -0.6 2.1 -1.4 3.5 -0.8 1.4 -1.4 2.1 -1.4 1.5z"/>
  <path d="M183.5 81 c-0.3 -0.4 0 -1 0.5 -1.2 1.7 -0.5 1.4 -10 -0.4 -14.2 -1.9 -4.4 -1.9 -4.6 -0.8 -4.6 1.4 0 3.4 5.1 4.1 10.5 l0.7 5 1.9 -2.9 c1.3 -2 1.9 -4.5 1.9 -8.2 -0.1 -3 0.3 -5.1 0.7 -4.8 1.9 1.2 0.9 10.1 -1.5 13.7 -3.3 4.8 -6.4 7.8 -7.1 6.7z"/>
  <path d="M57.6 73.1 c-0.4 -0.6 0.7 -3.8 2.5 -7.1 1.7 -3.3 2.9 -6.7 2.5 -7.5 -0.7 -1.9 1.5 -1.5 3.1 0.5 0.9 1.2 0.9 1.8 -0.2 3 -0.7 0.8 -1.5 2.4 -1.9 3.6 -1 3.2 -5.3 8.6 -6 7.5z"/>
  <path d="M34.7 62.9 c1 -1.7 2.4 -3.6 3.2 -4.2 0.8 -0.7 0.2 0.7 -1.4 3.1 -3.2 4.9 -4.5 5.7 -1.8 1.1z"/>
  <path d="M159.1 58.4 c-1.2 -1.5 -2.1 -3.2 -2.1 -3.9 0 -1.5 3 -1.4 3.1 0.1 0 0.5 0.6 1.6 1.3 2.4 2.4 2.8 2.8 4 1.2 4 -0.8 0 -2.4 -1.2 -3.5 -2.6z"/>
  <path d="M126 58.4 c0 -1.2 -0.6 -1.5 -2.2 -1.1 -2.2 0.6 -2.2 0.5 -0.5 -0.8 1.1 -0.8 1.7 -2.3 1.5 -3.7 -0.3 -2.2 -0.8 -2.3 -9.8 -2.8 -10.7 -0.6 -9.1 -2 2.3 -2 5.3 0 6.7 -0.3 6.7 -1.5 0 -0.8 0.5 -1.5 1 -1.5 0.6 0 1 0.9 1 2 0 1.6 0.5 1.9 2.5 1.5 1.4 -0.3 3.6 -0.7 4.9 -1 2 -0.4 2.5 -1.2 2.8 -4.1 l0.3 -3.5 4.3 3.1 c2.5 1.9 4.2 4 4.2 5.2 0 1.3 -0.5 1.8 -1.4 1.5 -2 -0.8 -2.8 0.4 -1.5 2 1.5 1.7 2.9 1.7 2.9 -0.2 0 -0.8 0.7 -1.5 1.5 -1.5 0.8 0 1.5 0.9 1.5 2 0 1.3 -0.7 2 -2 2 -1.1 0 -2 0.7 -2 1.5 0 0.8 -0.7 1.5 -1.5 1.5 -0.8 0 -1.5 -0.7 -1.5 -1.4 0 -1.6 -4.2 -6.6 -5.5 -6.6 -0.4 0 -0.4 1.6 -0.1 3.5 0.4 2 0.4 4.5 0 5.7 -0.6 1.9 -0.7 1.9 -1.6 0.5 -1.1 -2.1 -3.8 -2.2 -3.8 -0.2 0 0.8 -0.9 1.5 -2 1.5 -1.2 0 -2 -0.7 -2 -1.6z m6 -4.3 c0 -2.1 -1.3 -4.1 -2.7 -4.1 -1 0 -1.3 0.6 -0.9 1.6 0.3 0.9 0.6 2 0.6 2.5 0 0.5 0.7 0.9 1.5 0.9 0.8 0 1.5 -0.4 1.5 -0.9z"/>
  <path d="M101.3 57.3 c3.2 -0.2 8.1 -0.2 11 0 2.9 0.2 0.3 0.3 -5.8 0.3 -6 0 -8.4 -0.1 -5.2 -0.3z"/>
  <path d="M85 56 c0 -0.5 0.9 -1 1.9 -1 1.1 0 2.3 0.5 2.6 1 0.4 0.6 -0.5 1 -1.9 1 -1.4 0 -2.6 -0.4 -2.6 -1z"/>
  <path d="M170.6 52.3 c-1.1 -0.3 -2.6 -1.1 -3.4 -1.9 -1.1 -1.2 -1 -1.4 0.8 -1.4 1.4 0 1.9 0.4 1.4 1.3 -0.6 1 -0.4 1 0.7 0 1.9 -1.9 3.5 -1.6 3.6 0.7 0.1 1.1 -0.1 1.9 -0.5 1.9 -0.4 -0.1 -1.6 -0.4 -2.6 -0.6z"/>
  <path d="M37.6 50 c1 -0.8 9.2 -2.5 8.4 -1.6 -0.3 0.2 -2.5 0.9 -4.9 1.5 -2.4 0.5 -3.9 0.6 -3.5 0.1z"/>
  <path d="M122.5 43 c-0.3 -0.5 -4 -1 -8.1 -1 -4.3 0 -7.4 -0.4 -7.4 -1 0 -0.6 3.1 -1 7.4 -1 7.4 0 7.5 0 7.8 -2.7 0.3 -2.4 0.8 -2.8 4.1 -3.1 3.6 -0.3 3.7 -0.3 3.7 3.2 0 3 -0.4 3.6 -2 3.6 -1.1 0 -2.3 0.7 -2.6 1.5 -0.7 1.7 -2 2 -2.9 0.5z"/>
  <path d="M101.3 41.2 c-1.8 -0.2 -3.3 -0.6 -3.3 -1 0 -0.8 6.8 -0.8 7.6 0.1 0.9 0.9 -0.9 1.3 -4.3 0.9z"/>
  <path d="M88.8 19.3 c-1.7 -0.4 -1.6 -0.7 0.2 -4.3 2.3 -4.4 5.5 -7 8.7 -7 3.1 0 2.9 0.7 -1.4 4.7 -3.4 3.1 -3.5 3.4 -1.3 2.8 4.4 -1.2 12.8 -1.8 15.5 -1.1 1.4 0.4 2.5 1.3 2.5 2.2 0 1.3 -0.9 1.4 -5.2 0.9 -3.7 -0.4 -6.6 -0.2 -9.7 0.9 -4.4 1.6 -6.1 1.8 -9.3 0.9z"/>
 </g>
 <g fill="#bfbfbe">
  <path d="M152.8 150.4 c0.6 -1.1 1.8 -2.8 2.7 -3.9 1.5 -1.9 1.5 -1.8 0.1 1.2 -0.9 1.7 -2.1 3.5 -2.7 3.9 -0.8 0.4 -0.8 0.1 -0.1 -1.2z"/>
  <path d="M144.4 149.8 c0.3 -0.7 0.9 -2.1 1.2 -3 0.4 -1 1.1 -1.8 1.6 -1.8 0.5 0 0.7 0.6 0.4 1.3 -0.3 0.6 -0.9 2 -1.2 3 -0.4 0.9 -1.1 1.7 -1.6 1.7 -0.5 0 -0.7 -0.6 -0.4 -1.2z"/>
  <path d="M148 142.5 c0 -0.8 0.7 -1.5 1.6 -1.5 1.4 0 1.4 0.3 0.4 1.5 -0.7 0.8 -1.4 1.5 -1.6 1.5 -0.2 0 -0.4 -0.7 -0.4 -1.5z"/>
  <path d="M150 139.7 c0 -1.1 7.8 -14.8 9 -15.7 0.3 -0.3 1.4 -1.6 2.3 -3 0.9 -1.3 1.7 -1.9 1.7 -1.3 0 0.7 -0.5 1.5 -1 1.8 -0.6 0.4 -0.8 1 -0.5 1.5 0.3 0.5 -0.1 1.2 -0.9 1.7 -0.8 0.4 -1.5 1.3 -1.6 1.8 -0.3 1.8 -4.4 8.5 -5.2 8.5 -0.4 0 -0.8 0.6 -0.8 1.4 0 0.7 -0.7 1.9 -1.5 2.6 -0.8 0.7 -1.5 1 -1.5 0.7z"/>
  <path d="M159.5 139 c-0.3 -0.5 0.1 -1.3 1 -1.6 2.2 -0.9 2.9 0.1 1.1 1.5 -1 0.8 -1.6 0.9 -2.1 0.1z"/>
  <path d="M161.6 134.5 c0.4 -0.8 1 -1.5 1.6 -1.5 0.5 0 0.6 -0.4 0.3 -1 -0.3 -0.5 -0.1 -1 0.5 -1 0.6 0 0.8 -0.4 0.5 -1 -0.3 -0.5 -0.2 -1 0.4 -1 0.5 0 1.2 -0.8 1.4 -1.7 0.3 -1.2 0.5 -0.9 0.6 0.8 0 1.4 -0.8 3.5 -1.8 4.6 -1.1 1.2 -1.7 2.4 -1.4 2.7 0.4 0.3 -0.1 0.6 -1 0.6 -1 0 -1.4 -0.5 -1.1 -1.5z"/>
  <path d="M178.7 133 c0.3 -1.3 0 -2.2 -1.1 -2.5 -5.4 -1.7 -5.2 -1.6 -3.5 -2.8 1.4 -1.1 1.4 -1.4 -0.1 -3 -1 -1 -2.4 -1.5 -3.4 -1.1 -1.2 0.5 -1.6 0 -1.6 -1.7 0 -1.7 -0.3 -2 -0.9 -1.1 -0.6 1.1 -1.3 0.8 -2.9 -1.2 -1.1 -1.4 -2.2 -2.6 -2.5 -2.6 -0.3 0 -2.5 -1.8 -4.8 -4 -2.4 -2.2 -4.6 -4 -4.9 -4 -0.3 0 -3 3.4 -6 7.5 -3 4.1 -5.9 7.5 -6.3 7.5 -0.8 0 4.2 -7.4 9.5 -14.2 l2.1 -2.6 -3.6 -4.4 c-6.3 -7.8 -13.1 -19.1 -16.8 -28.3 -3.3 -7.8 -4.1 -9.1 -6.6 -9.6 -2.8 -0.7 -2.8 -0.7 -0.5 -1.4 1.9 -0.6 2.2 -1.2 1.7 -3.4 -0.4 -1.4 -0.9 -3.9 -1.1 -5.5 -0.2 -1.5 -0.8 -3.4 -1.4 -4.1 -0.6 -0.7 -0.8 -1.9 -0.4 -2.8 0.7 -2 -1.3 -5.7 -3.2 -5.7 -0.8 0 -1.2 -0.5 -0.9 -1 0.4 -0.6 1 -0.8 1.5 -0.5 1.1 0.7 1.8 -1.5 1.2 -3.6 -0.3 -1.2 -2 -1.9 -5.8 -2.4 -3 -0.3 -5.4 -1 -5.4 -1.4 0 -0.5 -1.8 -0.5 -4 -0.1 -2.9 0.5 -4 0.4 -3.7 -0.4 0.2 -0.7 3.3 -1 9.1 -0.8 7.9 0.2 8.7 0.1 8.4 -1.5 -0.2 -1.1 -2 -2.4 -5 -3.3 -2.7 -0.8 -4.8 -1.8 -4.8 -2.2 0 -1.1 3.3 -1.5 6.3 -0.7 5.9 1.6 2 -3.1 -4.8 -5.6 -6.8 -2.6 -18.9 -0.4 -21.7 3.9 -1.2 1.8 0.8 2.9 3 1.7 2.8 -1.5 4.2 -1.4 3.6 0.3 -0.3 0.7 -2.3 1.8 -4.5 2.5 -2.1 0.6 -3.9 1.8 -3.9 2.6 0 0.7 -0.6 1.6 -1.2 1.8 -1 0.4 -1 0.6 0 0.6 0.7 0.1 1.1 0.5 0.8 0.9 -0.8 1.3 -2.4 9 -2.5 12.4 -0.1 2.4 -2.8 1.2 -3.5 -1.5 -0.3 -1.2 -0.1 -2.6 0.4 -3.1 0.6 -0.6 1 -1.7 0.9 -2.5 0 -1.1 -0.2 -1.2 -0.6 -0.3 -0.2 0.6 -1 1.2 -1.7 1.2 -0.7 0 -1.2 1.6 -1.3 4 -0.1 2.6 0.2 4 1.1 4 0.7 0 2 0.6 3 1.3 1.6 1.1 1.5 1.3 -1 1.2 -1.8 -0.1 -3.1 -0.9 -3.8 -2.4 -0.6 -1.4 -1.5 -2 -2.5 -1.6 -0.9 0.3 -0.7 -0.3 0.6 -1.4 1.9 -1.6 2 -2 0.7 -2.5 -2.4 -0.9 -5.4 -0.7 -5.4 0.4 0 0.6 -0.8 1 -1.7 1 -1.3 0 -0.8 -0.9 1.8 -3.2 5.1 -4.7 8.8 -10.1 13.9 -20.3 5.5 -11 8.9 -13.5 18.6 -13.5 5.1 0 6.7 0.5 10 2.8 2.1 1.6 4.4 4 5 5.3 0.7 1.3 2.5 5.1 4 8.4 3.3 6.9 8.9 15 12.9 18.4 3.2 2.7 13.4 7.1 16.6 7.1 1.2 0 3.9 0.5 6 1.2 4 1.1 5.1 3.1 2.4 4.2 -0.9 0.3 -1.5 0 -1.5 -1 0 -1.1 -0.6 -1.4 -1.6 -1 -0.9 0.3 -1.8 0.6 -2 0.6 -0.3 0 -0.2 0.5 0.1 1 0.4 0.6 1.1 0.8 1.6 0.5 0.5 -0.4 0.9 0.3 0.9 1.4 0 1.1 0.6 2.4 1.3 2.8 2.7 1.6 12.7 18.3 11.1 18.3 -0.4 0 0.1 0.9 1 1.9 1 1.1 1.5 2.5 1.1 3 -0.3 0.6 -0.1 1.1 0.5 1.1 0.6 0 1 0.6 0.9 1.3 -0.4 2.1 1.7 6.2 2.5 4.9 0.4 -0.7 1.1 -1.2 1.7 -1.2 1.4 0 1.1 3.7 -0.6 6.9 -0.8 1.6 -1.7 4.7 -2.1 7 -0.4 2.3 -1.1 4.4 -1.6 4.8 -1.3 0.7 -2.8 -1.6 -2.8 -4.5 0 -2.8 -2.4 -2.5 -2.6 0.4 -0.1 1 -0.2 2.6 -0.3 3.4 -0.1 0.9 -0.9 0.3 -1.9 -1.5 -2.8 -4.5 -5.1 -6.2 -6.2 -4.5 -0.8 1.4 1.5 6 3 6 0.4 0 1.1 1.1 1.4 2.5 0.4 1.4 1.4 2.5 2.4 2.6 1 0 1.2 0.3 0.4 0.6 -0.6 0.2 -0.9 0.9 -0.6 1.5 0.4 0.6 0.1 1.4 -0.7 1.8 -1 0.7 -0.9 1.6 0.6 4.4 1.1 2 2.5 3.6 3.1 3.6 0.7 0 1.9 0.2 2.7 0.5 0.8 0.4 1.4 0 1.4 -0.9 0 -0.8 -0.4 -1.3 -0.8 -1.1 -0.4 0.3 -1.5 -0.7 -2.4 -2.2 -1.7 -2.5 -1.7 -2.6 0.1 -1.9 1.4 0.4 1.2 0.1 -0.6 -1.5 -1.7 -1.4 -1.9 -1.9 -0.7 -1.5 0.9 0.3 1.7 0.3 1.7 0 0 -1 -2.3 -4.9 -3.3 -5.5 -0.5 -0.4 0.9 -0.6 3.2 -0.5 3.9 0.1 4.1 0.2 4.1 3.3 0 1.7 -0.6 3.4 -1.2 3.6 -0.9 0.4 -0.8 0.6 0.2 0.6 0.8 0.1 2.3 1.7 3.2 3.6 1.7 3.3 1.7 3.5 0 3.6 -1.3 0 -1.1 0.3 0.6 0.9 1.2 0.5 2.2 1.2 2.2 1.4 0 0.3 -0.7 0.3 -1.6 -0.1 -1.3 -0.5 -1.4 0.2 -0.8 4.4 0.4 3.1 0.2 5.3 -0.4 5.7 -0.6 0.4 -0.8 -0.2 -0.5 -1.4z m-12.4 -19.6 c0.9 -0.9 -6.2 -9.4 -7.9 -9.4 -2.8 0 -2.3 2.2 1.3 5.9 3.8 3.8 5.4 4.7 6.6 3.5z m-9.7 -10.8 c0.3 -0.7 -2 -5.1 -5.1 -9.7 -3.2 -4.6 -8 -13.2 -10.8 -19.1 -3.6 -7.4 -5.7 -10.7 -6.7 -10.5 -2.4 0.5 -1.4 4.3 3.9 15.2 4.9 9.9 15.4 25.5 17.2 25.5 0.5 0 1.2 -0.6 1.5 -1.4z m5.3 -5 c0.9 -1 -0.1 -3.4 -4.4 -10.4 -3 -5.1 -7.4 -12.9 -9.7 -17.4 -2.4 -4.6 -4.5 -8.5 -4.8 -8.8 -0.3 -0.3 -1.1 -1.8 -1.8 -3.3 -1.4 -3.3 -3.8 -3 -3.4 0.4 0.5 5.5 19.9 40.9 22.3 40.9 0.4 0 1.2 -0.6 1.8 -1.4z m8.7 0.3 c0.3 -0.6 1.4 -0.9 2.4 -0.6 2.1 0.5 2.7 -0.5 2.6 -4.6 -0.1 -3.4 -1.7 -3.7 -3.3 -0.6 -1.1 2 -1 2.5 0.5 3.1 1.4 0.6 1.5 0.7 0.1 0.7 -0.9 0.1 -2.4 -0.8 -3.4 -1.9 -1 -1.1 -1.5 -2 -1.1 -2 1 0 -8.8 -18.5 -14.4 -27.4 -3.6 -5.8 -4.4 -6.5 -6.1 -5.6 -1.8 1 -1.8 1.2 -0.3 4.3 4.2 8.2 17.6 30.7 18.4 30.7 1.3 0 1.9 3.9 0.6 4.4 -0.6 0.2 -0.1 0.5 1.1 0.5 1.2 0.1 2.5 -0.4 2.9 -1z m3.4 -12 c0 -1 -0.5 -3 -1.2 -4.6 -0.6 -1.5 -1.2 -3 -1.2 -3.3 -0.3 -1.4 -10.1 -16.9 -12.2 -19.4 -1.9 -2.2 -2.9 -2.6 -4.4 -2 -1.7 0.8 -1.5 1.5 2.6 8.4 2.5 4.1 6.6 11.4 9.1 16.3 3.7 7.1 4.8 8.5 5.9 7.6 0.8 -0.6 1.4 -2 1.4 -3z m-39.7 -24.6 c0.4 -0.3 0 -1.7 -0.8 -3 -0.9 -1.3 -1.3 -2.8 -1 -3.3 0.9 -1.4 -1.3 -5 -3 -5 -1.9 0 -1.9 2.4 0 4.3 0.8 0.8 1.1 1.7 0.8 2 -0.3 0.3 -0.3 1.8 0.1 3.2 0.6 2.4 2.5 3.3 3.9 1.8z m14 -3.9 c0.9 -1 -0.4 -3.4 -1.9 -3.4 -0.8 0 -1.4 -0.9 -1.4 -1.9 0 -1 -0.7 -2.2 -1.6 -2.5 -2.5 -0.9 -3 0.1 -1.1 2.2 1 1 1.7 2.5 1.7 3.4 0 2.4 2.6 3.8 4.3 2.2z m6.7 -3.5 c0 -0.5 -0.9 -0.9 -2 -0.9 -1.9 0 -2.6 1.1 -1.4 2.3 0.8 0.8 3.4 -0.3 3.4 -1.4z m-16.9 -1.2 c-0.1 -0.4 -0.1 -1.4 -0.1 -2.2 0 -0.8 -0.7 -1.5 -1.5 -1.5 -1.5 0 -2.1 3.1 -0.8 4.4 0.8 0.8 2.5 0.3 2.4 -0.7z m-8.5 -6.3 c-0.3 -0.9 -0.6 -2 -0.6 -2.5 0 -0.5 -0.4 -0.9 -1 -0.9 -1.1 0 -1.4 3.3 -0.3 4.3 1.2 1.3 2.5 0.7 1.9 -0.9z m-24.1 -31.7 c3.9 0 8 0.3 9.3 0.7 3.8 1.3 2.5 -1.2 -2.1 -3.9 -2.4 -1.4 -5.7 -2.5 -7.4 -2.5 -3.7 0 -9.5 2.3 -11.3 4.4 -0.7 0.9 -2 1.6 -2.9 1.7 -1.2 0 -1.1 0.2 0.4 0.8 1.1 0.5 3.1 0.4 4.5 -0.1 1.4 -0.5 5.7 -1 9.5 -1.1z"/>
  <path d="M151 122.5 c0 -1.1 5.3 -7.6 5.8 -7.1 0.2 0.3 -0.9 2.1 -2.7 4.1 -1.7 2 -3.1 3.3 -3.1 3z"/>
  <path d="M179 74.9 c0 -0.8 -1.4 -4.1 -3 -7.4 -2 -4 -2.3 -5.1 -1 -3.5 2.4 3.1 5.5 10.8 4.6 11.7 -0.3 0.3 -0.6 0 -0.6 -0.8z"/>
  <path d="M77 66.3 c0 -2.7 1.4 -4.3 2.9 -3.4 1.7 1.1 0.5 5.1 -1.5 5.1 -0.8 0 -1.4 -0.8 -1.4 -1.7z"/>
  <path d="M181.2 60.9 c-1.8 -2.8 -4.9 -5.9 -6.7 -7.1 -1.9 -1.1 -3.5 -2.6 -3.5 -3.3 0 -1.7 5.1 -2.6 9 -1.5 3.6 1 10 5.6 10 7.1 0 0.5 -1.8 -0.4 -3.9 -2.2 -2.8 -2.2 -5.4 -3.3 -8.8 -3.7 l-4.8 -0.5 5.1 4.6 c4.5 4.1 8.4 10 7.3 11.2 -0.2 0.2 -1.9 -1.9 -3.7 -4.6z"/>
  <path d="M169.4 57.9 c-2 -2.2 -2.3 -2.8 -0.8 -1.9 1.8 1.1 5 5 4.1 5 -0.2 0 -1.6 -1.4 -3.3 -3.1z"/>
  <path d="M81 52.5 c0 -1 0.7 -1.5 1.8 -1.3 2.1 0.4 1.9 2.2 -0.2 2.6 -1 0.2 -1.6 -0.3 -1.6 -1.3z"/>
  <path d="M74.8 51.8 c0.9 -0.9 1.5 -0.9 2.4 0 0.9 0.9 0.7 1.2 -1.2 1.2 -1.9 0 -2.1 -0.3 -1.2 -1.2z"/>
  <path d="M104.8 49.3 c2.3 -0.2 5.9 -0.2 8 0 2 0.2 0.1 0.4 -4.3 0.4 -4.4 0 -6.1 -0.2 -3.7 -0.4z"/>
  <path d="M66 47.4 c0 -0.8 -0.4 -1.3 -0.9 -0.9 -0.5 0.3 -1.2 0.1 -1.5 -0.4 -0.4 -0.5 0.2 -0.8 1.1 -0.7 1.6 0.3 3.3 3.6 1.9 3.6 -0.3 0 -0.6 -0.7 -0.6 -1.6z"/>
  <path d="M99.8 40.3 c1.2 -0.2 3.2 -0.2 4.5 0 1.2 0.2 0.2 0.4 -2.3 0.4 -2.5 0 -3.5 -0.2 -2.2 -0.4z"/>
  <path d="M92 33.1 c0 -0.5 0.7 -1.1 1.5 -1.5 0.9 -0.3 1.5 0 1.5 0.9 0 0.8 -0.7 1.5 -1.5 1.5 -0.8 0 -1.5 -0.4 -1.5 -0.9z"/>
  <path d="M100.2 24.6 c-1.4 -0.9 -1.2 -1.1 1.5 -1.7 3.6 -0.7 8.3 -0.1 8.3 1.1 0 1.2 -7.8 1.7 -9.8 0.6z"/>
 </g>
</svg>